<?xml version="1.0" standalone="no"?>
<!DOCTYPE svg PUBLIC "-//W3C//DTD SVG 20010904//EN"
 "http://www.w3.org/TR/2001/REC-SVG-20010904/DTD/svg10.dtd">
<svg version="1.0" xmlns="http://www.w3.org/2000/svg"
 width="3840.000000pt" height="1671.000000pt" viewBox="0 0 3840.000000 1671.000000"
 preserveAspectRatio="xMidYMid meet">

<g transform="translate(0.000000,1671.000000) scale(0.100000,-0.100000)"
fill="#000000" stroke="none">
<path d="M33500 16704 c-659 -19 -1390 -108 -2043 -250 -1635 -355 -3118
-1072 -4387 -2123 -264 -219 -453 -393 -766 -705 -330 -331 -515 -533 -741
-813 -938 -1160 -1654 -2710 -2027 -4388 -382 -1721 -363 -3396 54 -4779 98
-326 183 -535 365 -895 166 -328 270 -499 455 -746 551 -735 1275 -1214 2403
-1590 553 -184 1103 -296 1870 -380 235 -25 1244 -17 1719 15 386 26 1136 158
1733 305 854 211 1578 468 2355 838 l195 93 412 1314 c1290 4108 1528 4849
1610 5000 126 235 281 425 486 596 151 127 267 200 515 323 88 44 163 84 166
89 8 14 -1181 22 -3109 22 -1768 0 -3115 -8 -3115 -19 0 -3 47 -35 105 -69
173 -104 338 -248 446 -392 91 -120 159 -302 179 -480 27 -233 21 -255 -680
-2495 -805 -2573 -1189 -3773 -1216 -3800 -37 -36 -221 -67 -509 -85 -538 -32
-888 10 -1270 152 -832 309 -1359 1046 -1531 2137 -177 1132 -8 2620 512 4496
322 1162 620 1964 1054 2840 1019 2054 2324 3481 3745 4093 434 187 875 301
1284 332 175 13 519 13 713 -1 463 -32 1057 -193 1578 -429 483 -219 943 -503
1425 -880 127 -100 228 -170 243 -170 16 0 208 590 470 1445 189 616 204 668
185 682 -82 63 -1023 313 -1662 443 -713 144 -1333 225 -2001 260 -201 10
-1015 20 -1220 14z"/>
<path d="M5348 16513 c-209 -2 -318 -7 -318 -14 0 -5 49 -60 109 -122 162
-169 243 -306 282 -482 17 -77 18 -367 1 -456 -6 -36 -70 -255 -141 -485 -569
-1847 -3446 -11011 -4158 -13244 -74 -234 -151 -456 -170 -495 -150 -299 -520
-688 -834 -878 -41 -26 -83 -55 -93 -66 -18 -20 -18 -21 0 -28 31 -13 5665 -9
5693 3 23 10 20 14 -75 86 -233 177 -366 376 -418 631 -20 98 -21 255 -1 332
64 245 1214 3946 1502 4830 36 110 67 208 70 218 7 23 89 23 374 0 272 -22
1388 -25 1704 -5 722 46 1241 112 1815 232 879 183 1733 485 2430 860 910 488
1650 1110 2208 1855 692 922 1197 2170 1343 3320 20 153 17 749 -5 944 -89
814 -502 1537 -1161 2037 -622 471 -1459 778 -2440 894 -159 19 -263 23 -880
30 -624 8 -6033 10 -6837 3z m5509 -1277 c323 -42 587 -135 813 -285 106 -71
273 -230 355 -340 165 -220 276 -506 322 -835 24 -171 24 -716 0 -936 -67
-600 -262 -1356 -532 -2065 -267 -700 -626 -1339 -993 -1770 -115 -134 -523
-541 -646 -642 -304 -253 -748 -490 -1175 -627 -371 -120 -652 -159 -1156
-160 -223 -1 -280 2 -400 21 -162 26 -214 39 -221 57 -9 24 345 1165 1751
5646 368 1173 614 1940 624 1948 25 21 1088 10 1258 -12z"/>
<path d="M20030 12814 c-19 -2 -80 -9 -135 -15 -282 -30 -695 -148 -1034 -295
-711 -309 -1214 -748 -1610 -1403 -291 -480 -508 -1074 -626 -1715 -97 -529
-142 -1063 -130 -1532 4 -143 4 -270 1 -282 -7 -22 -74 -51 -351 -150 -776
-280 -1009 -369 -1325 -508 -299 -131 -656 -321 -945 -502 -946 -592 -1589
-1411 -1811 -2307 -37 -149 -75 -369 -96 -550 -19 -168 -16 -619 6 -790 71
-569 246 -1021 559 -1445 572 -776 1430 -1208 2577 -1301 172 -13 638 -13 795
1 655 57 1292 235 2015 562 351 159 793 396 1105 593 293 185 409 255 423 255
24 0 102 -63 297 -240 479 -434 897 -768 1127 -901 l103 -59 940 0 c1287 1
2905 16 2916 27 10 10 -101 66 -245 123 -266 105 -784 356 -1106 536 -742 413
-1429 885 -1955 1343 -135 117 -423 401 -450 444 -17 27 -17 28 9 68 15 22 73
93 129 157 587 670 908 1209 1111 1864 101 325 184 753 202 1041 l7 107 -989
-1 c-544 0 -998 -4 -1009 -8 -17 -7 -11 -17 56 -87 220 -232 294 -455 260
-785 -25 -241 -99 -537 -186 -749 -90 -222 -216 -449 -292 -529 -42 -44 -43
-44 -64 -25 -62 56 -433 639 -630 991 -337 601 -578 1210 -729 1837 -54 226
-100 467 -100 525 0 44 4 52 30 71 30 21 166 88 975 481 801 389 1306 698
1775 1089 175 146 466 440 594 600 129 161 193 262 302 475 203 396 272 674
261 1050 -8 264 -59 481 -167 713 -238 509 -742 916 -1375 1110 -308 95 -440
113 -850 117 -181 2 -346 1 -365 -1z m529 -898 c90 -25 161 -66 236 -137 129
-123 167 -229 168 -479 0 -80 -5 -179 -12 -220 -103 -625 -582 -1360 -1346
-2063 -326 -300 -690 -579 -882 -676 l-62 -31 -12 22 c-19 34 -30 368 -24 668
9 408 28 612 81 860 150 703 437 1285 826 1671 216 216 448 351 675 394 92 17
270 13 352 -9z m-3826 -5708 c8 -18 34 -97 56 -176 23 -79 75 -243 115 -365
208 -625 357 -988 641 -1562 265 -537 486 -920 800 -1390 99 -149 191 -292
205 -318 l25 -48 -30 -25 c-37 -30 -316 -172 -488 -248 -537 -237 -1056 -386
-1492 -427 -166 -16 -517 -6 -660 20 -298 52 -539 144 -756 290 -419 279 -648
655 -730 1196 -27 176 -29 447 -5 610 124 836 744 1604 1811 2243 177 106 430
232 466 232 20 0 30 -8 42 -32z"/>
</g>
</svg>
